#!OML:ASF I:\golf\golf\golf 2\Subject 1\2002-09-07\Subject1.ASF
:FULLY-SPECIFIED
:DEGREES
468
root 0.30064 18.144 -3.83442 10.0262 3.73543 -2.44734
lowerback 2.38609 1.09529 -2.70571
upperback 0.970455 1.4282 4.024
thorax -0.509221 0.710524 5.64331
lowerneck -22.2228 -4.54367 -1.91797
upperneck 17.3516 -6.23641 2.78075
head 9.26225 -2.71399 0.381441
rclavicle 9.34288e-015 -9.54166e-015
rhumerus -24.877 -3.39112 -70.948
rradius 23.9176
rwrist -6.15512
rhand -23.4423 10.0911
rfingers 7.12502
rthumb 3.01596 -19.8673
lclavicle 9.34288e-015 -9.54166e-015
lhumerus -29.3814 -4.94272 86.9423
lradius 45.3627
lwrist 7.99031
lhand -15.6416 27.2532
lfingers 7.12502
lthumb 10.5458 56.9686
rfemur -20.939 -8.17704 24.0736
rtibia 27.0641
rfoot -11.5867 -13.3103
rtoes 7.16922
lfemur -20.2739 2.16635 -13.5632
ltibia 23.4842
lfoot -16.0977 -1.46188
ltoes -8.70912
469
root 0.310189 18.1474 -3.82408 9.83267 3.54062 -2.45458
lowerback 2.17101 1.03773 -2.74528
upperback 0.81279 1.35496 3.98109
thorax -0.542231 0.677591 5.62534
lowerneck -22.2901 -4.44364 -1.78188
upperneck 17.3579 -6.12263 2.69203
head 9.26574 -2.66133 0.344428
rclavicle -2.18663e-015 4.13472e-014
rhumerus -25.3994 -3.89573 -70.8487
rradius 24.3335
rwrist -6.27431
rhand -23.6274 9.9719
rfingers 7.12502
rthumb 2.83721 -19.989
lclavicle -2.18663e-015 4.13472e-014
lhumerus -29.1887 -4.26368 86.4466
lradius 44.2771
lwrist 8.14258
lhand -15.3685 27.6968
lfingers 7.12502
lthumb 10.8093 57.3987
rfemur -20.5922 -8.01343 23.983
rtibia 26.8896
rfoot -11.6211 -13.2441
rtoes 8.09869
lfemur -19.9093 2.02224 -13.5744
ltibia 23.3556
lfoot -15.9886 -1.42056
ltoes -8.66803
470
root 0.318363 18.1517 -3.81702 9.66311 3.32169 -2.44245
lowerback 1.90819 0.973888 -2.87876
upperback 0.692895 1.27186 3.98017
thorax -0.511282 0.63759 5.70657
lowerneck -22.3474 -4.3184 -1.69581
upperneck 17.335 -5.96008 2.6167
head 9.2586 -2.58841 0.327585
rclavicle -2.38542e-015 1.59028e-015
rhumerus -25.8277 -4.34302 -70.7203
rradius 24.758
rwrist -6.61816
rhand -23.7034 9.80979
rfingers 7.12502
rthumb 2.76376 -20.152
lclavicle -2.38542e-015 1.59028e-015
lhumerus -28.9594 -3.60308 85.9893
lradius 43.1365
lwrist 8.2776
lhand -14.9893 28.0779
lfingers 7.12502
lthumb 11.1751 57.7603
rfemur -20.3048 -7.87385 23.8865
rtibia 26.7482
rfoot -11.5602 -13.1476
rtoes 8.5474
lfemur -19.5727 1.87138 -13.6042
ltibia 23.2365
lfoot -15.8902 -1.30171
ltoes -8.50262
471
root 0.326626 18.1527 -3.8121 9.46248 3.08139 -2.45904
lowerback 1.61271 0.862122 -3.06238
upperback 0.673263 1.1237 4.07348
thorax -0.353097 0.559816 5.91848
lowerneck -22.5464 -4.13217 -1.63898
upperneck 17.3239 -5.67636 2.42527
head 9.27463 -2.47281 0.290442
rclavicle -1.98785e-015 2.62396e-014
rhumerus -25.9564 -4.66268 -70.5593
rradius 25.0707
rwrist -7.11434
rhand -23.727 9.99981
rfingers 7.12502
rthumb 2.74105 -19.9623
lclavicle -1.98785e-015 2.62396e-014
lhumerus -28.5605 -2.58301 85.5626
lradius 41.8983
lwrist 8.22611
lhand -14.7344 28.5016
lfingers 7.12502
lthumb 11.4209 58.1706
rfemur -20.0167 -7.68743 23.8154
rtibia 26.649
rfoot -11.5264 -13.0927
rtoes 8.79476
lfemur -19.2102 1.72436 -13.594
ltibia 23.1183
lfoot -15.8885 -1.19305
ltoes -7.82519
472
root 0.335136 18.1491 -3.80598 9.20633 2.80451 -2.50597
lowerback 1.37963 0.743603 -3.16574
upperback 0.661783 0.967179 4.14953
thorax -0.217365 0.477888 6.06463
lowerneck -22.7806 -3.91263 -1.56934
upperneck 17.3723 -5.35544 2.24494
head 9.31765 -2.33678 0.25951
rclavicle -5.56597e-015 -1.43125e-014
rhumerus -26.0989 -4.92711 -70.4696
rradius 25.389
rwrist -7.42252
rhand -23.7993 10.1341
rfingers 7.12502
rthumb 2.67117 -19.8289
lclavicle -5.56597e-015 -1.43125e-014
lhumerus -28.226 -1.47638 85.1185
lradius 40.6617
lwrist 8.17261
lhand -14.8126 28.9783
lfingers 7.12502
lthumb 11.3455 58.6514
rfemur -19.6659 -7.45379 23.7608
rtibia 26.5629
rfoot -11.5392 -13.0771
rtoes 8.99661
lfemur -18.7927 1.62933 -13.555
ltibia 23.0385
lfoot -15.9259 -1.10325
ltoes -7.09832
473
root 0.341933 18.1462 -3.80195 8.99694 2.51752 -2.4676
lowerback 1.18245 0.645158 -3.33185
upperback 0.601995 0.837309 4.16415
thorax -0.154032 0.41203 6.17994
lowerneck -22.9812 -3.71134 -1.39007
upperneck 17.4222 -5.08284 2.00368
head 9.35232 -2.22361 0.183622
rclavicle 7.55382e-015 2.62396e-014
rhumerus -26.3821 -5.1703 -70.4461
rradius 25.8644
rwrist -7.65838
rhand -23.9669 9.72872
rfingers 7.12502
rthumb 2.50931 -20.2363
lclavicle 7.55382e-015 2.62396e-014
lhumerus -27.9783 -0.72036 84.6676
lradius 39.469
lwrist 8.45451
lhand -14.8256 29.5353
lfingers 7.12502
lthumb 11.333 59.2091
rfemur -19.3824 -7.1639 23.6197
rtibia 26.5005
rfoot -11.4905 -13.0832
rtoes 9.03591
lfemur -18.4518 1.60654 -13.6232
ltibia 22.9993
lfoot -15.9767 -1.00131
ltoes -6.64758
474
root 0.348858 18.1473 -3.80134 8.85919 2.30912 -2.57188
lowerback 1.03294 0.504358 -3.39539
upperback 0.528628 0.652051 4.29602
thorax -0.123406 0.319578 6.36001
lowerneck -23.3205 -3.55448 -1.31641
upperneck 17.5823 -4.82501 1.70769
head 9.45232 -2.12886 0.100408
rclavicle -2.5842e-015 -2.54444e-014
rhumerus -26.6378 -5.12059 -70.417
rradius 26.4873
rwrist -8.13262
rhand -24.3768 9.64772
rfingers 7.12502
rthumb 2.11343 -20.3216
lclavicle -2.5842e-015 -2.54444e-014
lhumerus -27.7452 0.175504 84.264
lradius 38.3338
lwrist 8.6155
lhand -14.5276 30.2864
lfingers 7.12502
lthumb 11.6204 59.9442
rfemur -19.2132 -6.86314 23.6639
rtibia 26.4839
rfoot -11.4974 -13.1209
rtoes 9.16603
lfemur -18.251 1.73889 -13.5465
ltibia 22.9625
lfoot -16.0175 -1.06072
ltoes -6.94893
475
root 0.355868 18.1446 -3.80324 8.69779 2.10162 -2.71813
lowerback 0.936142 0.400121 -3.42211
upperback 0.428685 0.515767 4.42398
thorax -0.155005 0.254134 6.51322
lowerneck -23.4788 -3.43916 -1.36045
upperneck 17.7436 -4.62585 1.58523
head 9.53128 -2.05115 0.0906177
rclavicle 6.4605e-015 3.65764e-014
rhumerus -26.9786 -5.08859 -70.3875
rradius 27.0036
rwrist -8.81246
rhand -24.7284 10.3277
rfingers 7.12502
rthumb 1.77391 -19.6446
lclavicle 6.4605e-015 3.65764e-014
lhumerus -27.6056 0.973923 83.8737
lradius 37.209
lwrist 8.52958
lhand -14.2026 30.9106
lfingers 7.12502
lthumb 11.9338 60.5504
rfemur -19.0493 -6.59953 23.7596
rtibia 26.4958
rfoot -11.5153 -13.1394
rtoes 9.42628
lfemur -18.0657 1.92635 -13.4253
ltibia 22.9347
lfoot -15.982 -1.17597
ltoes -7.58971
476
root 0.363506 18.1371 -3.80458 8.46632 1.81089 -2.71567
lowerback 0.871869 0.387608 -3.57429
upperback 0.26931 0.501515 4.42435
thorax -0.28265 0.254304 6.60157
lowerneck -23.1858 -3.30389 -1.23712
upperneck 17.6791 -4.46089 1.48468
head 9.44956 -1.98149 0.0652656
rclavicle -1.68967e-015 -2.3059e-014
rhumerus -27.5065 -5.5089 -70.3064
rradius 27.3776
rwrist -9.27567
rhand -24.6717 10.3881
rfingers 7.12502
rthumb 1.82868 -19.5838
lclavicle -1.68967e-015 -2.3059e-014
lhumerus -27.6132 1.34329 83.4738
lradius 36.0504
lwrist 8.52816
lhand -14.0351 31.1954
lfingers 7.12502
lthumb 12.0952 60.8258
rfemur -18.8211 -6.31799 23.6662
rtibia 26.5243
rfoot -11.5175 -13.1284
rtoes 9.49355
lfemur -17.778 1.99601 -13.4592
ltibia 22.9145
lfoot -15.9362 -1.13232
ltoes -7.53521
477
root 0.372798 18.1323 -3.80295 8.30327 1.49215 -2.72167
lowerback 0.673287 0.371713 -3.69748
upperback 0.154421 0.484578 4.43606
thorax -0.288406 0.24883 6.68627
lowerneck -23.0295 -3.11843 -0.961319
upperneck 17.5602 -4.229 1.18485
head 9.36355 -1.89295 -0.045739
rclavicle -6.85807e-015 -1.66979e-014
rhumerus -27.884 -6.02795 -70.213
rradius 27.7137
rwrist -9.56464
rhand -24.441 9.67904
rfingers 7.12502
rthumb 2.05142 -20.2908
lclavicle -6.85807e-015 -1.66979e-014
lhumerus -27.5308 1.83212 83.0805
lradius 34.8684
lwrist 8.52505
lhand -13.9869 31.4783
lfingers 7.12502
lthumb 12.1418 61.106
rfemur -18.6692 -6.08511 23.5903
rtibia 26.5784
rfoot -11.5589 -13.0847
rtoes 9.24324
lfemur -17.4989 1.98081 -13.4836
ltibia 22.8669
lfoot -15.9303 -0.973712
ltoes -7.46999
478
root 0.383275 18.1301 -3.79889 8.23605 1.15275 -2.67781
lowerback 0.284904 0.31203 -3.86308
upperback 0.144766 0.411109 4.47416
thorax -0.0710463 0.205718 6.82552
lowerneck -23.1762 -2.95112 -0.764894
upperneck 17.5008 -3.98797 0.857916
head 9.35351 -1.8058 -0.157051
rclavicle -2.88238e-015 1.82882e-014
rhumerus -28.0079 -6.34756 -70.1703
rradius 28.0367
rwrist -9.9547
rhand -24.1873 9.27837
rfingers 7.12502
rthumb 2.29651 -20.689
lclavicle -2.88238e-015 1.82882e-014
lhumerus -27.3187 2.43816 82.7386
lradius 33.7193
lwrist 8.63151
lhand -14.1938 31.8211
lfingers 7.12502
lthumb 11.9422 61.4605
rfemur -18.6532 -5.99681 23.4731
rtibia 26.7076
rfoot -11.6109 -12.9044
rtoes 8.91368
lfemur -17.2538 1.95411 -13.5846
ltibia 22.738
lfoot -15.9856 -0.765312
ltoes -8.02494
479
root 0.395564 18.1302 -3.79543 8.14047 0.820594 -2.62565
lowerback -0.025095 0.225823 -4.024
upperback 0.132538 0.301742 4.52882
thorax 0.105528 0.145417 6.97894
lowerneck -23.5034 -2.80651 -0.826023
upperneck 17.7789 -3.76635 0.835764
head 9.50733 -1.70532 -0.129397
rclavicle -5.46658e-015 4.21423e-014
rhumerus -28.1162 -6.51276 -70.1723
rradius 28.4181
rwrist -10.4621
rhand -24.1535 9.72947
rfingers 7.12502
rthumb 2.3291 -20.2376
lclavicle -5.46658e-015 4.21423e-014
lhumerus -27.2412 2.92708 82.4323
lradius 32.7672
lwrist 8.81746
lhand -14.1654 31.9385
lfingers 7.12502
lthumb 11.9696 61.5763
rfemur -18.6569 -6.02195 23.3409
rtibia 26.9323
rfoot -11.7004 -12.6412
rtoes 8.23605
lfemur -16.9431 1.94684 -13.7022
ltibia 22.5157
lfoot -15.9802 -0.599187
ltoes -8.04615
480
root 0.417327 18.1296 -3.79742 8.17428 0.51064 -2.14923
lowerback -0.365002 0.109575 -4.49691
upperback 0.0341303 0.156714 4.44434
thorax 0.21578 0.0709378 7.16408
lowerneck -23.6396 -2.65863 -0.779196
upperneck 17.9769 -3.53817 0.648871
head 9.59433 -1.61656 -0.171817
rclavicle -2.38542e-015 -3.97569e-015
rhumerus -28.2776 -6.54802 -70.2294
rradius 28.8386
rwrist -11.0846
rhand -24.3631 10.596
rfingers 7.12502
rthumb 2.12669 -19.3731
lclavicle -2.38542e-015 -3.97569e-015
lhumerus -27.2212 3.39359 82.1065
lradius 31.9051
lwrist 8.62528
lhand -13.5964 32.3167
lfingers 7.12502
lthumb 12.5182 61.9217
rfemur -18.8517 -6.37051 22.7371
rtibia 27.2111
rfoot -11.8047 -12.1548
rtoes 7.48424
lfemur -16.7623 1.82908 -14.3294
ltibia 22.2459
lfoot -15.8542 -0.33945
ltoes -7.559
481
root 0.447719 18.1275 -3.80368 8.36098 0.191631 -1.27697
lowerback -0.82379 -0.0233694 -5.23335
upperback -0.0954539 -0.000108701 4.21312
thorax 0.364312 -0.0103674 7.34453
lowerneck -23.8362 -2.45119 -0.592349
upperneck 18.113 -3.24217 0.325146
head 9.66525 -1.50369 -0.274757
rclavicle 2.38542e-015 3.18055e-014
rhumerus -28.3676 -6.61978 -70.2729
rradius 29.109
rwrist -11.3801
rhand -24.5006 11.0224
rfingers 7.12502
rthumb 1.99385 -18.9481
lclavicle 2.38542e-015 3.18055e-014
lhumerus -27.1566 3.83662 81.7965
lradius 31.0353
lwrist 8.29647
lhand -13.1851 32.9666
lfingers 7.12502
lthumb 12.9147 62.547
rfemur -19.2109 -6.91008 21.6918
rtibia 27.4239
rfoot -11.8508 -11.4545
rtoes 7.23348
lfemur -16.7815 1.6621 -15.4415
ltibia 22.0269
lfoot -15.7559 -0.0376042
ltoes -7.22597
482
root 0.470446 18.1268 -3.80815 8.39093 -0.102458 -0.911027
lowerback -1.07432 -0.11713 -5.52872
upperback -0.214028 -0.1121 4.1107
thorax 0.401226 -0.0649049 7.40535
lowerneck -23.9764 -2.22555 -0.41282
upperneck 18.1683 -2.946 0.120562
head 9.70178 -1.37791 -0.33327
rclavicle 6.95746e-015 -2.22639e-014
rhumerus -28.4748 -6.80749 -70.3136
rradius 29.2596
rwrist -11.2982
rhand -24.5353 11.0172
rfingers 7.12502
rthumb 1.96039 -18.9536
lclavicle 6.95746e-015 -2.22639e-014
lhumerus -27.2169 4.16612 81.4576
lradius 30.2655
lwrist 8.08684
lhand -12.9211 33.3337
lfingers 7.12502
lthumb 13.1693 62.8978
rfemur -19.306 -7.13105 21.211
rtibia 27.4559
rfoot -11.8436 -11.0052
rtoes 6.9388
lfemur -16.7098 1.66694 -15.9505
ltibia 21.9415
lfoot -15.732 0.116882
ltoes -7.0305
